<svg xmlns="http://www.w3.org/2000/svg" viewBox="0 0 16 16" fill="currentColor">
  <path d="M8 1a.5.5 0 0 1 .5.5V2h3.5a.5.5 0 0 1 0 1H8.5v10H11a.5.5 0 0 1 0 1H5a.5.5 0 0 1 0-1h2.5V3H4a.5.5 0 0 1 0-1h3.5v-.5A.5.5 0 0 1 8 1z"/>
  <path d="M4 4.5a.5.5 0 0 1 .9-.3l2 3a.5.5 0 0 1 0 .55l-2 3A.5.5 0 0 1 4 10.5v-6zM12 4.5a.5.5 0 0 0-.9-.3l-2 3a.5.5 0 0 0 0 .55l2 3a.5.5 0 0 0 .9-.25v-6z"/>
  <path d="M1.5 7.5a2 2 0 1 0 4 0 .5.5 0 0 1 1 0 3 3 0 1 1-6 0 .5.5 0 0 1 1 0zM9.5 7.5a2 2 0 1 0 4 0 .5.5 0 0 1 1 0 3 3 0 1 1-6 0 .5.5 0 0 1 1 0z"/>
</svg>
